<svg width="96" height="96" viewBox="0 0 96 96" fill="none" xmlns="http://www.w3.org/2000/svg">
  <!-- Background -->
  <rect width="96" height="96" rx="24" fill="#69C23F"/>

  <!-- Book Icon -->
  <path d="M48 28C42 24 34 24 26 26C23.8 26.5 22 28.5 22 31V62C22 64.8 24.2 67 27 67C34 67 41 69 48 73C55 69 62 67 69 67C71.8 67 74 64.8 74 62V31C74 28.5 72.2 26.5 70 26C62 24 54 24 48 28Z" 
        stroke="white" 
        stroke-width="4" 
        stroke-linecap="round" 
        stroke-linejoin="round"
        fill="none"/>

  <!-- Center Line -->
  <path d="M48 28V73" 
        stroke="white" 
        stroke-width="4" 
        stroke-linecap="round"/>
</svg>